<?xml version="1.0" encoding="UTF-8"?>
<svg xmlns="http://www.w3.org/2000/svg" xmlns:xlink="http://www.w3.org/1999/xlink" width="120px" height="120px" viewBox="0 0 120 120" version="1.1">
<g id="surface1">
<path style=" stroke:none;fill-rule:nonzero;fill:rgb(0%,68.627451%,94.117647%);fill-opacity:1;" d="M 109.21875 63.28125 C 106.914062 54.679688 100.675781 47.675781 92.394531 44.402344 C 84.117188 41.125 74.773438 41.964844 67.210938 46.664062 L 74.890625 15.988281 C 75.28125 14.425781 74.632812 12.789062 73.273438 11.921875 C 64.589844 6.4375 53.605469 6.121094 44.625 11.101562 C 35.640625 16.082031 30.085938 25.5625 30.132812 35.832031 C 30.183594 46.105469 35.824219 55.53125 44.855469 60.425781 L 14.445312 69.113281 C 12.898438 69.554688 11.804688 70.933594 11.726562 72.542969 C 11.132812 85.734375 19.796875 97.5625 32.550781 100.976562 C 34.9375 101.621094 37.398438 101.945312 39.871094 101.949219 C 47.484375 101.929688 54.761719 98.828125 60.050781 93.351562 C 65.339844 87.875 68.183594 80.492188 67.941406 72.886719 L 90.664062 94.878906 C 91.824219 96 93.570312 96.253906 95 95.511719 C 106.714844 89.433594 112.628906 76.03125 109.21875 63.28125 Z M 61.144531 69.304688 C 56.003906 69.9375 51.328125 66.28125 50.695312 61.144531 C 50.0625 56.003906 53.71875 51.328125 58.855469 50.695312 C 63.996094 50.0625 68.671875 53.71875 69.304688 58.855469 C 69.9375 63.996094 66.28125 68.671875 61.144531 69.304688 Z M 61.144531 69.304688 "/>
</g>
</svg>
