<svg width="500" height="500" viewBox="0 0 500 500" xmlns="http://www.w3.org/2000/svg"><title>twitter-logo</title><g fill="none" fill-rule="evenodd"><path d="M170.2264 442.7654c162.2648 0 251.0168-140.0367 251.0168-261.4758 0-3.9775 0-7.9371-.258-11.8788 17.2659-13.009 32.1701-29.1167 44.0148-47.5687-16.1013 7.4318-33.1817 12.3057-50.6712 14.4587 18.4168-11.4849 32.2005-29.5486 38.786-50.8295-17.3177 10.7044-36.2637 18.2483-56.0204 22.3062-27.3466-30.29-70.8-37.7036-105.9942-18.0837-35.194 19.62-53.3763 61.3941-44.351 101.8979-70.9346-3.7043-137.0242-38.6047-181.8212-96.0154-23.4157 41.9903-11.4554 95.7083 27.3136 122.6754-14.0397-.4335-27.7732-4.3786-40.0416-11.5025v1.1646c.0115 43.7452 29.6141 81.4229 70.778 90.085-12.9882 3.6897-26.6156 4.229-39.8352 1.5766 11.5575 37.4355 44.6783 63.0807 82.4224 63.8192-31.2398 25.5748-69.831 39.4584-109.564 39.4166A172.495 172.495 0 0 1 35 401.4854c40.345 26.9696 87.2885 41.275 135.2264 41.2083" fill="#1DA1F2"/><path d="M35 35h430v430H35z"/></g></svg>